# xmcd
#
# Track frame offsets: 
#        150
#        16447
#        29481
#        43131
#        59641
#        75266
#        93204
#        109136
#        126166
#        146108
#        161508
#        179884
#
# Disc length: 2634 seconds
#
# Revision: 1
# Processed by: cddbd v1.5.2PL0 Copyright (c) Steve Scherf et al.
# Submitted via: ExactAudioCopy v1.0b3
#
DISCID=a70a480c
DTITLE=Marques Houston - Famous
DYEAR=2013
DGENRE=R&B
TTITLE0=Only You
TTITLE1=Nothin' On You
TTITLE2=Give Your Love A Try
TTITLE3=Famous
TTITLE4=The Way Love Is
TTITLE5=Take Your Love Away
TTITLE6=Leaving My Girl
TTITLE7=Make It Last Forever
TTITLE8=See You
TTITLE9=Speechless
TTITLE10=Lifetime
TTITLE11=Fly Away
EXTD=
EXTT0=
EXTT1=
EXTT2=
EXTT3=
EXTT4=
EXTT5=
EXTT6=
EXTT7=
EXTT8=
EXTT9=
EXTT10=
EXTT11=
PLAYORDER=
